    <svg width="50" height="51" viewBox="0 0 50 51" fill="none" xmlns="http://www.w3.org/2000/svg">
        <g clip-path="url(#clip0_183_595)">
            <path d="M40.2183 0.5H9.78167C4.3794 0.5 0 4.8794 0 10.2817V40.7183C0 46.1206 4.3794 50.5 9.78167 50.5H40.2183C45.6206 50.5 50 46.1206 50 40.7183V10.2817C50 4.8794 45.6206 0.5 40.2183 0.5Z" fill="url(#paint0_linear_183_595)" fill-opacity="0.2" />
            <path d="M40.2183 1H9.78167C4.65554 1 0.5 5.15554 0.5 10.2817V40.7183C0.5 45.8445 4.65554 50 9.78167 50H40.2183C45.3445 50 49.5 45.8445 49.5 40.7183V10.2817C49.5 5.15554 45.3445 1 40.2183 1Z" stroke="url(#paint1_linear_183_595)" />
            <path d="M32.0176 37.0234C31.0166 37.0234 30.1658 36.6731 29.4651 35.9724C28.7644 35.2717 28.4141 34.4209 28.4141 33.4199C28.4141 33.2998 28.4441 33.0195 28.5042 32.5791L20.0659 27.6543C19.7456 27.9546 19.3752 28.19 18.9548 28.3606C18.5344 28.5312 18.084 28.616 17.6035 28.6152C16.6025 28.6152 15.7517 28.2649 15.051 27.5642C14.3503 26.8635 14 26.0127 14 25.0117C14 24.0107 14.3503 23.1599 15.051 22.4592C15.7517 21.7585 16.6025 21.4082 17.6035 21.4082C18.084 21.4082 18.5344 21.4935 18.9548 21.6641C19.3752 21.8346 19.7456 22.0696 20.0659 22.3691L28.5042 17.4443C28.4641 17.3042 28.4393 17.1693 28.4297 17.0395C28.4201 16.9098 28.4149 16.7645 28.4141 16.6035C28.4141 15.6025 28.7644 14.7517 29.4651 14.051C30.1658 13.3503 31.0166 13 32.0176 13C33.0186 13 33.8694 13.3503 34.5701 14.051C35.2708 14.7517 35.6211 15.6025 35.6211 16.6035C35.6211 17.6045 35.2708 18.4553 34.5701 19.156C33.8694 19.8567 33.0186 20.207 32.0176 20.207C31.5371 20.207 31.0867 20.1217 30.6663 19.9512C30.2458 19.7806 29.8755 19.5456 29.5552 19.2461L21.1169 24.1709C21.157 24.311 21.1822 24.4464 21.1926 24.5769C21.203 24.7074 21.2078 24.8524 21.207 25.0117C21.2062 25.1711 21.2014 25.3164 21.1926 25.4477C21.1838 25.5791 21.1586 25.714 21.1169 25.8525L29.5552 30.7773C29.8755 30.477 30.2458 30.242 30.6663 30.0723C31.0867 29.9025 31.5371 29.8172 32.0176 29.8164C33.0186 29.8164 33.8694 30.1667 34.5701 30.8674C35.2708 31.5681 35.6211 32.4189 35.6211 33.4199C35.6211 34.4209 35.2708 35.2717 34.5701 35.9724C33.8694 36.6731 33.0186 37.0234 32.0176 37.0234Z" fill="white" />
        </g>
        <defs>
            <linearGradient id="paint0_linear_183_595" x1="39.4484" y1="50.5" x2="3.05682" y2="5.0984" gradientUnits="userSpaceOnUse">
                <stop offset="0.161" stop-color="white" />
                <stop offset="0.781" stop-color="white" stop-opacity="0" />
            </linearGradient>
            <linearGradient id="paint1_linear_183_595" x1="33.5" y1="-13.5" x2="-3" y2="66.5" gradientUnits="userSpaceOnUse">
                <stop offset="0.161" stop-color="white" />
                <stop offset="0.781" stop-color="white" stop-opacity="0" />
            </linearGradient>
            <clipPath id="clip0_183_595">
                <rect width="50" height="51" fill="white" />
            </clipPath>
        </defs>
    </svg>