 <svg width="50" height="51" viewBox="0 0 50 51" fill="none" xmlns="http://www.w3.org/2000/svg">
        <g clip-path="url(#clip0_183_573)">
            <path d="M40.2183 0.5H9.78167C4.3794 0.5 0 4.8794 0 10.2817V40.7183C0 46.1206 4.3794 50.5 9.78167 50.5H40.2183C45.6206 50.5 50 46.1206 50 40.7183V10.2817C50 4.8794 45.6206 0.5 40.2183 0.5Z" fill="url(#paint0_linear_183_573)" fill-opacity="0.2" />
            <path d="M40.2183 1H9.78167C4.65554 1 0.5 5.15554 0.5 10.2817V40.7183C0.5 45.8445 4.65554 50 9.78167 50H40.2183C45.3445 50 49.5 45.8445 49.5 40.7183V10.2817C49.5 5.15554 45.3445 1 40.2183 1Z" stroke="url(#paint1_linear_183_573)" />
            <g clip-path="url(#clip1_183_573)">
                <path d="M25.3281 14.6249C22.1836 14.8655 19.2414 16.6866 17.6554 19.3718C17.4969 19.6343 17.3273 19.9515 17.2726 20.0772C17.1742 20.2905 17.1469 20.3069 16.589 20.5093C14.407 21.3077 12.575 23.0905 11.6289 25.3382C11.3992 25.8905 11.1422 26.8366 11.0492 27.4655C10.9508 28.1546 11.0164 29.8882 11.1586 30.5116C11.5687 32.2726 12.2851 33.5741 13.5429 34.8319C15.0469 36.3413 16.7914 37.1726 18.9023 37.3749C19.657 37.446 31.3601 37.446 32.1367 37.3749C33.9031 37.2108 35.4234 36.5272 36.6758 35.3405C37.7258 34.3507 38.4258 33.1421 38.8086 31.6819C39.0109 30.9108 39.0656 29.3741 38.9179 28.5046C38.7265 27.3452 38.1906 26.0983 37.4961 25.1741C37.1679 24.7366 36.4789 24.0257 36.0359 23.6757C35.8445 23.5171 35.8281 23.4843 35.7406 22.9647C35.0351 18.6991 31.6117 15.3413 27.3515 14.7179C26.6023 14.603 25.9679 14.5757 25.3281 14.6249ZM25.35 20.9413C25.4429 20.9851 26.6351 22.139 27.9914 23.5007C30.5672 26.0874 30.6328 26.164 30.5508 26.5358C30.4961 26.8093 30.3101 27.0444 30.0695 27.1483C29.8617 27.2468 29.6976 27.2577 28.2703 27.2577H26.7008L26.6844 29.4562C26.6679 31.6218 26.6679 31.6655 26.5422 31.9335C26.132 32.8249 25.0765 33.2132 24.2398 32.7812C23.9609 32.639 23.6054 32.2507 23.4578 31.9335C23.332 31.6655 23.332 31.6218 23.3156 29.4562L23.2992 27.2577H21.7297C20.3023 27.2577 20.1383 27.2468 19.9304 27.1483C19.6898 27.0444 19.5039 26.8093 19.4492 26.5358C19.3672 26.164 19.4328 26.0874 22.0086 23.5007C23.3648 22.139 24.5515 20.9905 24.639 20.9468C24.8578 20.8374 25.1312 20.8374 25.35 20.9413Z" fill="white" />
            </g>
        </g>
        <defs>
            <linearGradient id="paint0_linear_183_573" x1="39.4484" y1="50.5" x2="3.05682" y2="5.0984" gradientUnits="userSpaceOnUse">
                <stop offset="0.161" stop-color="white" />
                <stop offset="0.781" stop-color="white" stop-opacity="0" />
            </linearGradient>
            <linearGradient id="paint1_linear_183_573" x1="33.5" y1="-13.5" x2="-3" y2="66.5" gradientUnits="userSpaceOnUse">
                <stop offset="0.161" stop-color="white" />
                <stop offset="0.781" stop-color="white" stop-opacity="0" />
            </linearGradient>
            <clipPath id="clip0_183_573">
                <rect width="50" height="51" fill="white" />
            </clipPath>
            <clipPath id="clip1_183_573">
                <rect width="28" height="28" fill="white" transform="translate(11 12)" />
            </clipPath>
        </defs>
    </svg>