 <svg width="50" height="51" viewBox="0 0 50 51" fill="none" xmlns="http://www.w3.org/2000/svg">
        <g clip-path="url(#clip0_183_585)">
            <path d="M40.2183 0.5H9.78167C4.3794 0.5 0 4.8794 0 10.2817V40.7183C0 46.1206 4.3794 50.5 9.78167 50.5H40.2183C45.6206 50.5 50 46.1206 50 40.7183V10.2817C50 4.8794 45.6206 0.5 40.2183 0.5Z" fill="url(#paint0_linear_183_585)" fill-opacity="0.2" />
            <path d="M40.2183 1H9.78167C4.65554 1 0.5 5.15554 0.5 10.2817V40.7183C0.5 45.8445 4.65554 50 9.78167 50H40.2183C45.3445 50 49.5 45.8445 49.5 40.7183V10.2817C49.5 5.15554 45.3445 1 40.2183 1Z" stroke="url(#paint1_linear_183_585)" />
            <path d="M35.0469 16.6239L24.5 12.8984L13.9531 16.6239V25.2031C13.9531 29.596 16.6257 32.6668 19.1169 34.5732C20.6209 35.7126 22.2706 36.6417 24.0212 37.3354C24.1407 37.3808 24.2609 37.4241 24.3819 37.4652L24.5 37.5078L24.6202 37.4652C24.8508 37.3844 25.0794 37.2978 25.3058 37.2055C26.9361 36.5276 28.4742 35.6431 29.8831 34.5732C32.3754 32.6668 35.0469 29.596 35.0469 25.2031V16.6239ZM23.4464 28.8381L18.9734 24.3218L20.4648 22.8156L23.4474 25.8269L29.4138 19.8055L30.9062 21.3105L23.4464 28.8381Z" fill="white" />
        </g>
        <defs>
            <linearGradient id="paint0_linear_183_585" x1="39.4484" y1="50.5" x2="3.05682" y2="5.0984" gradientUnits="userSpaceOnUse">
                <stop offset="0.161" stop-color="white" />
                <stop offset="0.781" stop-color="white" stop-opacity="0" />
            </linearGradient>
            <linearGradient id="paint1_linear_183_585" x1="33.5" y1="-13.5" x2="-3" y2="66.5" gradientUnits="userSpaceOnUse">
                <stop offset="0.161" stop-color="white" />
                <stop offset="0.781" stop-color="white" stop-opacity="0" />
            </linearGradient>
            <clipPath id="clip0_183_585">
                <rect width="50" height="51" fill="white" />
            </clipPath>
        </defs>
    </svg>