    <svg width="50" height="50" viewBox="0 0 50 50" fill="none" xmlns="http://www.w3.org/2000/svg">
        <path d="M40.2183 0H9.78167C4.3794 0 0 4.3794 0 9.78167V40.2183C0 45.6206 4.3794 50 9.78167 50H40.2183C45.6206 50 50 45.6206 50 40.2183V9.78167C50 4.3794 45.6206 0 40.2183 0Z" fill="url(#paint0_linear_183_623)" fill-opacity="0.2" />
        <path d="M40.2183 0.5H9.78167C4.65554 0.5 0.5 4.65554 0.5 9.78167V40.2183C0.5 45.3445 4.65554 49.5 9.78167 49.5H40.2183C45.3445 49.5 49.5 45.3445 49.5 40.2183V9.78167C49.5 4.65554 45.3445 0.5 40.2183 0.5Z" stroke="url(#paint1_linear_183_623)" />
        <path d="M25 12.8125C18.2688 12.8125 12.8125 18.2688 12.8125 25C12.8125 31.7313 18.2688 37.1875 25 37.1875C31.7313 37.1875 37.1875 31.7313 37.1875 25C37.1875 18.2688 31.7313 12.8125 25 12.8125ZM20.176 19.5121L26.3283 23.6723C26.7344 23.9648 27.0091 24.4054 27.0928 24.8988C27.1766 25.3922 27.0627 25.8988 26.7759 26.3089C26.4891 26.719 26.0523 26.9998 25.5601 27.0904C25.0679 27.1809 24.5598 27.0741 24.1457 26.793C23.9638 26.6647 23.8052 26.5061 23.677 26.3242L19.5168 20.1719C19.4528 20.0801 19.4231 19.9688 19.4329 19.8573C19.4427 19.7459 19.4915 19.6415 19.5706 19.5624C19.6497 19.4833 19.7541 19.4345 19.8655 19.4247C19.977 19.4148 20.0883 19.4446 20.1801 19.5086L20.176 19.5121ZM25 35.3125C19.3164 35.3125 14.6875 30.6865 14.6875 25C14.6827 23.613 14.96 22.2395 15.5026 20.9631C16.0453 19.6867 16.8418 18.5339 17.8439 17.575C17.9219 17.4973 18.0145 17.4359 18.1164 17.3944C18.2183 17.3528 18.3275 17.332 18.4375 17.3331C18.5475 17.3342 18.6563 17.3572 18.7573 17.4007C18.8584 17.4443 18.9498 17.5075 19.0262 17.5867C19.1025 17.6659 19.1624 17.7595 19.2022 17.8621C19.242 17.9647 19.261 18.0742 19.2581 18.1842C19.2552 18.2942 19.2304 18.4025 19.1852 18.5029C19.14 18.6032 19.0752 18.6935 18.9947 18.7686C18.1538 19.5734 17.4854 20.5409 17.03 21.6121C16.5746 22.6833 16.3418 23.836 16.3457 25C16.3457 29.7719 20.2281 33.6543 25 33.6543C29.7719 33.6543 33.6543 29.7719 33.6543 25C33.6543 20.5076 30.2137 16.8039 25.8291 16.3867V19.6094C25.8291 19.8293 25.7417 20.0402 25.5863 20.1956C25.4308 20.3511 25.2199 20.4385 25 20.4385C24.7801 20.4385 24.5692 20.3511 24.4137 20.1956C24.2583 20.0402 24.1709 19.8293 24.1709 19.6094V15.5166C24.1709 15.2967 24.2583 15.0858 24.4137 14.9303C24.5692 14.7749 24.7801 14.6875 25 14.6875C30.6865 14.6875 35.3125 19.3164 35.3125 25C35.3125 30.6836 30.6865 35.3125 25 35.3125Z" fill="white" />
        <defs>
            <linearGradient id="paint0_linear_183_623" x1="39.4484" y1="50" x2="3.05682" y2="4.5984" gradientUnits="userSpaceOnUse">
                <stop offset="0.161" stop-color="white" />
                <stop offset="0.781" stop-color="white" stop-opacity="0" />
            </linearGradient>
            <linearGradient id="paint1_linear_183_623" x1="33.5" y1="-14" x2="-3" y2="66" gradientUnits="userSpaceOnUse">
                <stop offset="0.161" stop-color="white" />
                <stop offset="0.781" stop-color="white" stop-opacity="0" />
            </linearGradient>
        </defs>
    </svg>