    <svg width="50" height="50" viewBox="0 0 50 50" fill="none" xmlns="http://www.w3.org/2000/svg">
        <path d="M40.2183 0H9.78167C4.3794 0 0 4.3794 0 9.78167V40.2183C0 45.6206 4.3794 50 9.78167 50H40.2183C45.6206 50 50 45.6206 50 40.2183V9.78167C50 4.3794 45.6206 0 40.2183 0Z" fill="url(#paint0_linear_183_605)" fill-opacity="0.2" />
        <path d="M40.2183 0.5H9.78167C4.65554 0.5 0.5 4.65554 0.5 9.78167V40.2183C0.5 45.3445 4.65554 49.5 9.78167 49.5H40.2183C45.3445 49.5 49.5 45.3445 49.5 40.2183V9.78167C49.5 4.65554 45.3445 0.5 40.2183 0.5Z" stroke="url(#paint1_linear_183_605)" />
        <path d="M35.0469 16.6239L24.5 12.8984L13.9531 16.6239V25.2031C13.9531 29.596 16.6257 32.6668 19.1169 34.5732C20.6209 35.7126 22.2706 36.6417 24.0212 37.3354C24.1407 37.3808 24.2609 37.4241 24.3819 37.4652L24.5 37.5078L24.6202 37.4652C24.8508 37.3844 25.0794 37.2978 25.3058 37.2055C26.9361 36.5276 28.4742 35.6431 29.8831 34.5732C32.3754 32.6668 35.0469 29.596 35.0469 25.2031V16.6239ZM23.4464 28.8381L18.9734 24.3218L20.4648 22.8156L23.4474 25.8269L29.4138 19.8055L30.9062 21.3105L23.4464 28.8381Z" fill="white" />
        <defs>
            <linearGradient id="paint0_linear_183_605" x1="39.4484" y1="50" x2="3.05682" y2="4.5984" gradientUnits="userSpaceOnUse">
                <stop offset="0.161" stop-color="white" />
                <stop offset="0.781" stop-color="white" stop-opacity="0" />
            </linearGradient>
            <linearGradient id="paint1_linear_183_605" x1="33.5" y1="-14" x2="-3" y2="66" gradientUnits="userSpaceOnUse">
                <stop offset="0.161" stop-color="white" />
                <stop offset="0.781" stop-color="white" stop-opacity="0" />
            </linearGradient>
        </defs>
    </svg>