    <svg width="50" height="50" viewBox="0 0 50 50" fill="none" xmlns="http://www.w3.org/2000/svg">
        <path d="M40.2183 0H9.78167C4.3794 0 0 4.3794 0 9.78167V40.2183C0 45.6206 4.3794 50 9.78167 50H40.2183C45.6206 50 50 45.6206 50 40.2183V9.78167C50 4.3794 45.6206 0 40.2183 0Z" fill="url(#paint0_linear_183_614)" fill-opacity="0.2" />
        <path d="M40.2183 0.5H9.78167C4.65554 0.5 0.5 4.65554 0.5 9.78167V40.2183C0.5 45.3445 4.65554 49.5 9.78167 49.5H40.2183C45.3445 49.5 49.5 45.3445 49.5 40.2183V9.78167C49.5 4.65554 45.3445 0.5 40.2183 0.5Z" stroke="url(#paint1_linear_183_614)" />
        <path d="M25.5 13.125C23.5606 13.125 21.7006 13.8954 20.3293 15.2668C18.9579 16.6381 18.1875 18.4981 18.1875 20.4375V22.125H15.375V37.875H35.625V22.125H32.8125V20.4375C32.8125 18.4981 32.0421 16.6381 30.6707 15.2668C29.2994 13.8954 27.4394 13.125 25.5 13.125ZM30.5625 20.4375V22.125H20.4375V20.4375C20.4375 19.0948 20.9709 17.8072 21.9203 16.8578C22.8697 15.9084 24.1573 15.375 25.5 15.375C26.8427 15.375 28.1303 15.9084 29.0797 16.8578C30.0291 17.8072 30.5625 19.0948 30.5625 20.4375ZM19.875 26.067H22.1295V28.875H19.875V26.067ZM19.875 30.5625H22.1295V33.3795H19.875V30.5625Z" fill="white" />
        <path d="M19.875 30.5625H22.1295V33.3795H19.875V30.5625Z" fill="white" />
        <path d="M19.875 26.067H22.1295V28.875H19.875V26.067Z" fill="white" />
        <defs>
            <linearGradient id="paint0_linear_183_614" x1="39.4484" y1="50" x2="3.05682" y2="4.5984" gradientUnits="userSpaceOnUse">
                <stop offset="0.161" stop-color="white" />
                <stop offset="0.781" stop-color="white" stop-opacity="0" />
            </linearGradient>
            <linearGradient id="paint1_linear_183_614" x1="33.5" y1="-14" x2="-3" y2="66" gradientUnits="userSpaceOnUse">
                <stop offset="0.161" stop-color="white" />
                <stop offset="0.781" stop-color="white" stop-opacity="0" />
            </linearGradient>
        </defs>
    </svg>